# xmcd
#
# Track frame offsets:
#	150
#	18039
#	36289
#	55794
#	74115
#	90412
#	108280
#	126574
#	142517
#	161268
#	180975
#	201763
#	217212
#	231479
#
# Disc length: 3295 seconds
#
# Revision: 0
# Processed by: cddbd v1.4PL0 Copyright (c) Steve Scherf et al.
# Submitted via: dBpowerAMP V4.0
#
DISCID=bf0cdd0e
DTITLE=Various Artist - Crowd Around the Mic Vol 6 Disk 1
DYEAR=1900
DGENRE=
TTITLE0=Scott Miller and the Commonwealth- Across the Line
TTITLE1=Gigi Dover- Everyone wants a Kitten
TTITLE2=tim O'Brien- Demon Lover
TTITLE3=Steep Canyon Rangers- Mr. Taylor's New Home
TTITLE4=Sarah Harmer- Uniform Grey
TTITLE5=Jeb Loy Nichols- Kissing Gate
TTITLE6=Don Dixon- Then I Woke Up
TTITLE7=Catie Curtis- The Kiss that Counted
TTITLE8=Pine Mountain Railroad- Fly
TTITLE9=Janis Ian- At Seventeen
TTITLE10=Brute- Expiration Day
TTITLE11=Delbert McClinton- Baggage Claim
TTITLE12=The McCoury Boys- Evangelina
TTITLE13=Dave Carter and Tracy Grammer- The Mountain
EXTD=
EXTT0=
EXTT1=
EXTT2=
EXTT3=
EXTT4=
EXTT5=
EXTT6=
EXTT7=
EXTT8=
EXTT9=
EXTT10=
EXTT11=
EXTT12=
EXTT13=
PLAYORDER=
